<?xml version="1.0" encoding="utf-8"?>
<!-- Generator: Adobe Illustrator 19.2.1, SVG Export Plug-In . SVG Version: 6.00 Build 0)  -->
<svg version="1.1" id="layer" xmlns="http://www.w3.org/2000/svg" xmlns:xlink="http://www.w3.org/1999/xlink" x="0px" y="0px"
	 viewBox="0 0 652 652" style="enable-background:new 0 0 652 652;" xml:space="preserve">
<style type="text/css">
	.st0{fill:#3B801C;}
	.st1{fill:#3E3A39;}
</style>
<g>
	<path class="st0" d="M100.6,269.1v65C99.5,362.6,61.4,372,61.4,372s-37.8-9.2-39.4-37.9v-65H100.6z M45.3,356.2
		c4.3,3.4,10.6,5.5,16.1,7.5c5.8-0.8,11.5-3.8,16.1-7.1c-2.7-0.4-4.7-1.5-7.8-1.7c-2.4-0.2-4.5,0.7-6.8,1.4
		c-3.7,1.1-7.2-0.4-10.9-1.2C49.7,354.6,47.2,355.4,45.3,356.2 M43.5,353.6c2.7-0.7,5.1-1.9,7.9-1.6c3.2,0.4,6.1,2,9.2,1.7
		c3.5-0.3,6.7-2.5,10.3-1.7c4.5,1,10.4,3,13.7-1.3c-2.2-0.2-4.4,1.4-6.6,1.1c-3.4-0.5-6.6-2.2-10-1.8c-3.1,0.4-6,2.1-9.2,1.7
		c-3.4-0.4-6.5-2.2-10-1.5c-3,0.6-5.5,1.9-8.6,1.6C41.1,353.3,42,354,43.5,353.6 M29.8,334.3c0.2,5.1,2.6,10.4,6.3,13.5
		c4,3.2,8.8,0,13.6-0.4c2.8-0.2,5.3,1,8.1,1.5c3.3,0.6,6.1-0.8,9.2-1.5c3.4-0.8,6.4,0.8,9.7,1.5c3.8,0.8,6.9-1.8,10.6-1.6
		c3.4-3.3,4.9-8.3,5.3-12.9H29.8z M86.3,326.8h6.8v-22.7h-6.8V326.8z M72.1,326.8h6.8v-22.7h-6.8V326.8z M57.9,326.8h6.8v-22.7h-6.8
		V326.8z M43.6,326.8h6.8v-22.7h-6.8V326.8z M29.4,326.8h6.8v-22.7h-6.8V326.8z M32,296.6h58.5l-29.4-20.1L32,296.6z M29.4,276.5v13
		l18.7-13H29.4z M93.1,276.5h-19l19,13L93.1,276.5z"/>
	<path class="st0" d="M57.2,287.6c0-2.4,1.9-4.3,4.2-4.3c2.3,0,4.2,1.9,4.2,4.3c0,2.4-1.9,4.3-4.2,4.3
		C59.1,291.9,57.2,290,57.2,287.6"/>
	<path class="st0" d="M39,339c0-0.8-0.1-1-0.8-1h-0.7v-0.3c0.7,0,1.5,0,2.1,0c0.6,0,1.3,0,2.1,0v0.3h-0.7c-0.8,0-0.8,0.2-0.8,1v2.9
		c0,0.9,0,1.1,0.9,1.1h0.7v0.3c-0.7,0-1.4,0-2.1,0s-1.4,0-2.1,0v-0.3h0.7c0.9,0,0.9-0.1,0.9-1.1V339z"/>
	<path class="st0" d="M50.6,345.7c1.5-0.4,4.5-2.3,4.5-5.6c0-1.4-0.7-2.3-1.6-2.3c-0.8,0-1.4,0.7-1.4,1.8c0,0.9,0.5,1.6,1.3,1.6
		c0.5,0,1-0.4,1.3-0.6v0.4c-0.6,0.6-1.1,0.9-1.8,0.9c-0.8,0-1.8-0.6-1.8-2.1c0-1.4,1.2-2.4,2.7-2.4c1.5,0,2.4,1.1,2.4,2.7
		c0,2.7-2.4,4.9-5.4,5.7L50.6,345.7z"/>
	<path class="st0" d="M66.1,340.5c0,1.2,0.9,2.1,2.1,2.1c1.1,0,2.1-0.9,2.1-2.1c0-1.2-0.9-2.1-2.1-2.1
		C67,338.4,66.1,339.3,66.1,340.5 M68.1,343.4c-1.6,0-2.9-1.3-2.9-3c0-1.6,1.3-3,2.9-3c1.6,0,2.9,1.3,2.9,3
		C71,342.1,69.7,343.4,68.1,343.4"/>
	<path class="st0" d="M80.9,340.5c0,1.2,0.9,2.1,2.1,2.1c1.1,0,2.1-0.9,2.1-2.1c0-1.2-0.9-2.1-2.1-2.1
		C81.8,338.4,80.9,339.3,80.9,340.5 M82.9,343.4c-1.6,0-2.9-1.3-2.9-3c0-1.6,1.3-3,2.9-3c1.6,0,2.9,1.3,2.9,3
		C85.8,342.1,84.5,343.4,82.9,343.4"/>
</g>
<g>
	<path class="st1" d="M130.3,272.7v23.7h-2.9v-23.7h-7.8v-2.5h18.5v2.5H130.3z"/>
	<path class="st1" d="M146.7,270.2v18.5c0,3,2.2,5.6,6.3,5.6c4.1,0,6.3-2.5,6.3-5.6v-18.5h2.9v18.2c0,5.2-3.8,8.2-9.2,8.2
		c-5.4,0-9.2-3-9.2-8.2v-18.2H146.7z"/>
	<path class="st1" d="M187.6,288.5c-1.2,4.8-3.8,8.2-9.2,8.2c-5.9,0-10-4.3-10-13.4c0-8.5,3.7-13.4,10-13.4c4.9,0,7.7,2.8,8.8,7.6
		l-2.7,0.8c-0.9-3.7-2.6-5.9-6.5-5.9c-3.8,0-6.7,3.5-6.7,11c0,7.6,3,11,7.3,11c4,0,5.6-3,6.4-6.2L187.6,288.5z"/>
	<path class="st1" d="M197,296.4h-2.9v-26.1h2.9v13.6h0.1l10.8-13.6h3.4l-8.1,9.8l9.1,16.3H209l-7.8-13.9l-4.2,5.1V296.4z"/>
	<path class="st1" d="M243.1,276.9c-0.7-2.5-2.7-4.6-6.1-4.6c-3,0-4.8,1.4-4.9,4c-0.1,5.7,14.7,4.3,14.7,12.7c0,3.8-2.1,7.7-8.8,7.7
		c-5.7,0-8-3.7-9.3-6.8l2.6-0.9c1,2.8,3,5.3,6.8,5.3c3.8,0,5.8-2,5.8-4.7c0-6.7-14.7-4.7-14.7-13c0-3.8,3.1-6.7,7.8-6.7
		c4.1,0,7.2,2.1,8.6,6.4L243.1,276.9z"/>
	<path class="st1" d="M270.6,288.5c-1.2,4.8-3.8,8.2-9.2,8.2c-5.9,0-10-4.3-10-13.4c0-8.5,3.7-13.4,10-13.4c4.9,0,7.7,2.8,8.8,7.6
		l-2.7,0.8c-0.9-3.7-2.6-5.9-6.5-5.9c-3.8,0-6.7,3.5-6.7,11c0,7.6,3,11,7.3,11c4,0,5.6-3,6.4-6.2L270.6,288.5z"/>
	<path class="st1" d="M295.2,270.2v26.1h-2.9v-12.4h-12.5v12.4h-2.9v-26.1h2.9v11.2h12.5v-11.2H295.2z"/>
	<path class="st1" d="M312,269.9c6.4,0,10.2,4.7,10.2,13.4c0,8.7-3.8,13.4-10.2,13.4c-6.4,0-10.2-4.7-10.2-13.4
		C301.8,274.6,305.6,269.9,312,269.9z M312,294.3c4.6,0,7.3-3.5,7.3-11c0-7.4-2.7-11-7.3-11c-4.6,0-7.3,3.5-7.3,11
		C304.7,290.7,307.4,294.3,312,294.3z"/>
	<path class="st1" d="M337.1,269.9c6.4,0,10.2,4.7,10.2,13.4c0,8.7-3.8,13.4-10.2,13.4c-6.4,0-10.2-4.7-10.2-13.4
		C326.9,274.6,330.7,269.9,337.1,269.9z M337.1,294.3c4.6,0,7.3-3.5,7.3-11c0-7.4-2.7-11-7.3-11c-4.6,0-7.3,3.5-7.3,11
		C329.8,290.7,332.5,294.3,337.1,294.3z"/>
	<path class="st1" d="M354,296.4v-26.1h2.9v23.7h12.4v2.5H354z"/>
	<path class="st1" d="M395.1,269.9c6.4,0,10.2,4.7,10.2,13.4c0,8.7-3.8,13.4-10.2,13.4c-6.4,0-10.2-4.7-10.2-13.4
		C384.9,274.6,388.7,269.9,395.1,269.9z M395.1,294.3c4.6,0,7.3-3.5,7.3-11c0-7.4-2.7-11-7.3-11c-4.6,0-7.3,3.5-7.3,11
		C387.8,290.7,390.5,294.3,395.1,294.3z"/>
	<path class="st1" d="M427.2,270.2v2.5h-12.6v8.8h9.3v2.5h-9.3v12.4h-2.9v-26.1H427.2z"/>
	<path class="st1" d="M444.9,270.2h9.6c4.6,0,7.3,2.9,7.3,6.4c0,2.9-1.3,4.9-4.4,6l0,0.1c2.9,0.7,5,3.3,5,6.6c0,3.9-2.4,7-9.5,7
		h-8.1V270.2z M447.8,281.5h5.1c4.4,0,6.1-2.2,6.1-4.4c0-2.9-1.6-4.3-4.9-4.3h-6.2V281.5z M447.8,293.9h5.4c4.3,0,6.4-1.4,6.4-4.7
		c0-3.3-2.7-5.3-6.8-5.3h-5V293.9z"/>
	<path class="st1" d="M472.8,270.2v18.5c0,3,2.2,5.6,6.3,5.6c4.1,0,6.3-2.5,6.3-5.6v-18.5h2.9v18.2c0,5.2-3.8,8.2-9.2,8.2
		c-5.4,0-9.2-3-9.2-8.2v-18.2H472.8z"/>
	<path class="st1" d="M509.3,276.9c-0.7-2.5-2.7-4.6-6.1-4.6c-3,0-4.8,1.4-4.9,4c-0.1,5.7,14.7,4.3,14.7,12.7c0,3.8-2.1,7.7-8.8,7.7
		c-5.7,0-8-3.7-9.3-6.8l2.6-0.9c1,2.8,3,5.3,6.8,5.3c3.8,0,5.8-2,5.8-4.7c0-6.7-14.7-4.7-14.7-13c0-3.8,3.1-6.7,7.8-6.7
		c4.1,0,7.2,2.1,8.6,6.4L509.3,276.9z"/>
	<path class="st1" d="M523.5,270.2v26.1h-2.9v-26.1H523.5z"/>
	<path class="st1" d="M532.9,296.4v-26.1h4.2l11.4,20.1h0.1v-20.1h2.6v26.1h-2.4l-13.2-23.3h-0.1v23.3H532.9z"/>
	<path class="st1" d="M575.6,270.2v2.5h-12.8v8.8h9.1v2.5h-9.1v10h13.5v2.5H560v-26.1H575.6z"/>
	<path class="st1" d="M595.2,276.9c-0.7-2.5-2.7-4.6-6.1-4.6c-3,0-4.8,1.4-4.9,4c-0.1,5.7,14.7,4.3,14.7,12.7c0,3.8-2.1,7.7-8.8,7.7
		c-5.7,0-8-3.7-9.3-6.8l2.6-0.9c1,2.8,3,5.3,6.8,5.3c3.8,0,5.8-2,5.8-4.7c0-6.7-14.7-4.7-14.7-13c0-3.8,3.1-6.7,7.8-6.7
		c4.1,0,7.2,2.1,8.6,6.4L595.2,276.9z"/>
	<path class="st1" d="M618.3,276.9c-0.7-2.5-2.7-4.6-6.1-4.6c-3,0-4.8,1.4-4.9,4c-0.1,5.7,14.7,4.3,14.7,12.7c0,3.8-2.1,7.7-8.8,7.7
		c-5.7,0-8-3.7-9.3-6.8l2.6-0.9c1,2.8,3,5.3,6.8,5.3c3.8,0,5.8-2,5.8-4.7c0-6.7-14.7-4.7-14.7-13c0-3.8,3.1-6.7,7.8-6.7
		c4.1,0,7.2,2.1,8.6,6.4L618.3,276.9z"/>
</g>
<g>
	<path class="st1" d="M119.5,329.7l5.9-19.1h3.2l5.9,19.1h-2.2l-1.8-6h-6.9l-1.8,6H119.5z M124,321.9h5.8l-2.8-9.9h-0.3L124,321.9z"
		/>
	<path class="st1" d="M142.9,312.3v17.3h-2.1v-17.3h-5.7v-1.8h13.6v1.8H142.9z"/>
	<path class="st1" d="M163.7,310.5h5.1c5.2,0,8.6,3.3,8.6,9.6c0,5.6-3,9.6-8.7,9.6h-5V310.5z M165.8,327.9h2.9
		c4.4,0,6.7-2.6,6.7-7.8c0-5.6-2.6-7.8-6.6-7.8h-3V327.9z"/>
	<path class="st1" d="M181.2,329.7l5.9-19.1h3.2l5.9,19.1h-2.2l-1.8-6h-6.9l-1.8,6H181.2z M185.8,321.9h5.8l-2.8-9.9h-0.3
		L185.8,321.9z"/>
	<path class="st1" d="M201.3,329.7v-19.1h6.1c4.1,0,6.4,1.9,6.4,5c0,2.7-1.6,4.2-3.8,5l4.1,9.1h-2.3l-3.9-8.7h-4.5v8.7H201.3z
		 M203.4,319.2h3.8c2.9,0,4.5-1.1,4.5-3.5c0-2.6-1.7-3.3-4.5-3.3h-3.8V319.2z"/>
	<path class="st1" d="M225.7,312.3v17.3h-2.1v-17.3h-5.7v-1.8h13.6v1.8H225.7z"/>
	<path class="st1" d="M251.1,329.7v-17.5H251l-5.4,17.5H244l-5.4-17.5h-0.1v17.5h-1.9v-19.1h3.3l4.9,15.5h0.1l4.8-15.5h3.3v19.1
		H251.1z"/>
	<path class="st1" d="M266.6,310.3c4.7,0,7.5,3.4,7.5,9.8c0,6.4-2.8,9.8-7.5,9.8c-4.7,0-7.5-3.4-7.5-9.8
		C259.1,313.7,261.9,310.3,266.6,310.3z M266.6,328.1c3.4,0,5.4-2.6,5.4-8c0-5.4-2-8-5.4-8c-3.4,0-5.4,2.6-5.4,8
		C261.3,325.5,263.2,328.1,266.6,328.1z"/>
	<path class="st1" d="M282.3,310.5v13.5c0,2.2,1.6,4.1,4.6,4.1s4.6-1.9,4.6-4.1v-13.5h2.1v13.4c0,3.8-2.8,6-6.7,6
		c-4,0-6.7-2.2-6.7-6v-13.4H282.3z"/>
	<path class="st1" d="M306.8,312.3v17.3h-2.1v-17.3h-5.7v-1.8h13.6v1.8H306.8z"/>
	<path class="st1" d="M331.2,310.5v19.1h-2.1v-9.1h-9.2v9.1h-2.1v-19.1h2.1v8.2h9.2v-8.2H331.2z"/>
</g>
</svg>
